<svg height="496pt" viewBox="0 0 496 496" width="496pt" xmlns="http://www.w3.org/2000/svg"><path d="m111.839844 328 55.914062 56-92.234375 92.398438c-7.441406 7.441406-17.519531 11.601562-28 11.601562-10.878906 0-20.808593-4.480469-27.917969-11.601562-7.203124-7.199219-11.601562-17.039063-11.601562-28 0-10.476563 4.152344-20.550782 11.601562-28zm0 0" fill="#ff826e"/><path d="m252.320312 340.558594-84.558593 43.441406-55.914063-56 43.761719-85.519531c5.4375 24 16.957031 45.917969 34.71875 63.679687 17.351563 17.359375 38.632813 28.800782 61.992187 34.398438zm0 0" fill="#ccd1d9"/><path d="m426.480469 68.878906c-12.71875-12.640625-28.480469-21.277344-46.480469-25.597656-8.960938-2.160156-18.398438-3.28125-28.320312-3.28125-7.359376 0-14.800782.640625-22.160157 1.761719-18.238281 2.957031-36.320312 9.445312-53.28125 18.957031-14.558593 8.167969-28.398437 18.640625-40.804687 31.042969-12.480469 12.484375-23.042969 26.316406-31.121094 40.957031-9.441406 16.960938-15.839844 35.042969-18.800781 53.28125-.488281 3.121094-.878907 6.238281-1.199219 9.359375-1.359375 14.5625-.480469 28.402344 2.640625 41.199219 4.320313 18 12.957031 33.914062 25.519531 46.640625.167969.160156.238282.234375.40625.402343 12.472656 12.476563 27.914063 21.117188 45.59375 25.511719 9.28125 2.488281 19.199219 3.679688 29.597656 3.679688 1.28125 0 2.640626-.234375 3.921876-.234375-8.960938 9.441406-15.761719 20.082031-20.398438 31.363281-6.5625-.722656-13.042969-1.84375-19.28125-3.363281-23.359375-5.597656-44.640625-17.039063-62-34.40625-17.761719-17.761719-29.28125-39.679688-34.71875-63.679688-12.875-56.074218 7.125-123.113281 57.207031-173.351562 71.597657-71.679688 177.519531-81.761719 236.71875-22.5625 59.121094 59.195312 49.039063 165.363281-22.558593 237.042968-3.199219 3.191407-6.5625 6.160157-9.839844 9.039063-11.441406-6.242187-23.761719-10.167969-36.320313-11.761719 8.238281-5.917968 16.167969-12.488281 23.519531-19.917968 12.640626-12.640626 22.960938-26.480469 31.039063-40.882813 9.679687-17.277344 16-35.359375 18.960937-53.191406 2.878907-18 2.398438-35.765625-1.839843-52-4.402344-17.277344-12.871094-32.957031-25.59375-45.679688-.167969-.167969-.246094-.246093-.40625-.328125zm0 0" fill="#fcd770"/><path d="m470.878906 376.558594c-1.679687-24.085938-11.679687-47.765625-30-66.085938-7.199218-7.191406-15.199218-13.191406-23.765625-17.832031-11.441406-6.242187-23.761719-10.167969-36.320312-11.761719-2-.238281-4-.488281-6-.640625-7.441407-.484375-14.871094-.238281-22.234375.800781-17.917969 2.640626-35.277344 9.921876-50.167969 21.839844-2.871094 2.320313-5.679687 4.875-8.398437 7.59375-.71875.726563-1.359376 1.367188-2 2.085938-8.960938 9.441406-15.761719 20.082031-20.398438 31.363281-6.320312 15.117187-8.882812 31.4375-7.761719 47.511719 1.761719 24.085937 11.839844 47.765625 30.160157 66.085937 18.320312 18.402344 41.917968 28.480469 66 30.160157 28.960937 2.167968 58.71875-7.917969 80.878906-30.160157 22.167968-22.160156 32.167968-51.917969 30.007812-80.960937zm0 0" fill="#b4dd7f"/><g fill="#1e1713"><path d="m430.3125 291.398438c.757812-.726563 1.558594-1.382813 2.304688-2.132813 74.566406-74.699219 84.679687-186.105469 22.535156-248.355469-26.335938-26.382812-63.082032-40.910156-103.441406-40.910156-51.574219 0-104.261719 23.144531-144.550782 63.496094-51.144531 51.222656-71.945312 119.703125-59.945312 177.761718l-41.933594 81.988282-91.359375 91.507812c-8.976563 8.980469-13.921875 20.933594-13.921875 33.652344 0 26.242188 21.320312 47.59375 47.527344 47.59375 12.703125 0 24.640625-4.953125 33.625-13.945312l91.367187-91.519532 80.96875-41.597656c2.433594.535156 4.863281 1.046875 7.34375 1.460938-12.039062 38.539062-2.921875 82.320312 27.503907 112.792968 21.136718 21.160156 49.207031 32.808594 79.089843 32.808594h.007813c29.863281 0 57.957031-11.648438 79.085937-32.816406 43.585938-43.664063 43.585938-114.710938 0-158.382813-5.023437-5.023437-10.472656-9.472656-16.207031-13.402343zm32 80.160156c-7.382812 2.898437-15.089844 4.441406-23 4.441406-35.222656 0-63.878906-28.710938-63.878906-64 0-7.953125 1.542968-15.6875 4.445312-23.105469 20.875 2.707031 40.183594 12.066407 55.3125 27.210938 15.519532 15.558593 24.496094 35.175781 27.121094 55.453125zm-173.898438-66.816406c-.117187.011718-.238281.027343-.359374.027343-4.496094 0-8.839844-.328125-13.117188-.800781l8.621094-8.640625 7.242187 7.246094c-.777343.746093-1.617187 1.402343-2.386719 2.167969zm115.722657-55.292969-37.382813-37.441407 24.628906-24.671874 34 34.054687c-5.910156 9.761719-13.09375 19.152344-21.246093 28.058594zm-48.6875-120.777344-24.640625-24.671875 24.640625-24.679688 24.640625 24.671876zm35.941406-13.34375 24.632813 24.671875-24.640626 24.671875-24.621093-24.671875zm-47.253906 24.671875-24.632813 24.671875-24.640625-24.671875 24.632813-24.671875zm-35.9375 35.992188-24.632813 24.671874-24.636718-24.664062 24.628906-24.671875zm-35.953125 36.007812-24.628906 24.671875-24.632813-24.671875 24.632813-24.671875zm11.3125 11.328125 24.632812 24.671875-24.640625 24.671875-24.621093-24.671875zm11.3125-11.328125 24.632812-24.671875 24.632813 24.671875-24.632813 24.671875zm35.9375-36 24.632812-24.671875 24.636719 24.671875-24.628906 24.671875zm102.472656 30.632812-30.578125-30.632812 24.632813-24.671875 18.304687 18.335937c-2.402344 12.351563-6.535156 24.792969-12.359375 36.96875zm5.359375-66.625 8.6875-8.703124c.679687 5.933593.992187 11.984374.75 18.160156zm-11.3125-11.328124-24.632813-24.679688 23.480469-23.519531c7.921875 9.421875 13.734375 20.207031 17.34375 31.976562zm-35.945313-36.007813-24.628906-24.671875 15.734375-15.769531c12.105469 3.503906 23.015625 9.167969 32.40625 16.898437zm-35.933593-35.992187-8.402344-8.40625c1.554687-.066407 3.113281-.273438 4.664063-.273438 4.015624 0 7.929687.246094 11.777343.625zm-28.695313-6.105469 17.390625 17.425781-24.640625 24.679688-29.769531-29.816407c12.042969-5.757812 24.464844-9.894531 37.019531-12.289062zm-51.683594 20.25 33.128907 33.175781-24.632813 24.671875-36.589844-36.648437c8.824219-8.101563 18.238282-15.207032 28.09375-21.199219zm-39.429687 32.496093 36.617187 36.679688-24.632812 24.671875-33.25-33.296875c5.976562-9.855469 13.167969-19.222656 21.265625-28.054688zm-29.152344 42.808594 29.824219 29.871094-24.632812 24.671875-17.503907-17.535156c2.398438-12.601563 6.601563-25.015625 12.3125-37.007813zm-6.121093 65.878906-8.070313 8.082032c-.535156-5.355469-.578125-10.898438-.367187-16.53125zm11.304687 11.320313 24.640625 24.671875-23.457031 23.496094c-7.6875-9.40625-13.328125-20.375-16.832031-32.488282zm35.953125 36 24.632812 24.671875-16.128906 16.152344c-11.992187-3.640625-22.785156-9.410156-32.058594-17.242188zm55.605469 33.046875-8.359375-8.375 24.640625-24.671875 17.023437 17.046875c-11.902344 3.410156-23.121094 8.808594-33.304687 16zm52.21875-19.703125-24.632813-24.671875 24.632813-24.671875 37.359375 37.414063c-4.464844 4.066406-9.191406 8.011718-14.28125 11.800781-3.664063-.359375-7.367188-.542969-11.101563-.542969-4.035156 0-8.027343.246094-11.976562.671875zm-285.617188 198.082031c-5.960937 5.964844-13.878906 9.246094-22.304687 9.246094-17.375 0-31.527344-14.167969-31.527344-31.59375 0-8.445312 3.28125-16.382812 9.238281-22.351562l86.59375-86.726563 44.609375 44.671875zm99.449219-96.539062-1.519531-1.527344-46.152344-46.230469 32.222656-63c6.761719 17.925781 16.855469 34.429688 30.785157 48.382813 13.304687 13.328125 29.167968 23.511718 46.816406 30.433594zm26.664062-73.671875c-55.929687-56.015625-45.824218-157.285157 22.535157-225.75 37.3125-37.359375 85.871093-58.792969 133.230469-58.792969 36.089843 0 68.800781 12.863281 92.121093 36.214844 55.921875 56.015625 45.816407 157.28125-22.535156 225.753906-1.792969 1.800781-3.671875 3.4375-5.535156 5.109375-5.355469-2.574219-10.867188-4.796875-16.570313-6.476563 3.800782-3.25 7.449219-6.5625 10.839844-9.945312 62.121094-62.214844 72.226562-153.328125 22.542969-203.113281-20.621094-20.640625-48.574219-31.542969-80.863281-31.542969-43.167969 0-87.605469 19.726562-121.957032 54.128906-30.691406 30.742188-49.648437 69.269532-53.378906 108.496094-3.566406 37.503906 7.386719 71.109375 30.832031 94.589844 17.90625 17.945312 41.386719 28.503906 68.433594 30.96875-3.328125 4.792968-6.214844 9.792968-8.703125 14.945312-27.800781-4.015625-52.273438-15.832031-70.992188-34.585937zm76.597657 95.890625c7.386719-2.890625 15.082031-4.433594 22.992187-4.433594 35.226563 0 63.890625 28.710938 63.890625 64 0 7.960938-1.546875 15.6875-4.449219 23.105469-20.871093-2.699219-40.191406-12.066407-55.3125-27.226563-15.519531-15.542968-24.496093-35.160156-27.121093-55.445312zm162.640625 55.445312c-17.09375 17.128906-39.527344 26.863282-63.527344 27.914063 2.433594-7.703125 3.769531-15.648438 3.769531-23.792969 0-44.113281-35.832031-80-79.890625-80-8.109375 0-16.023437 1.335938-23.695312 3.761719 1.015625-23.152344 10.214844-46 27.832031-63.640625v-.007813c17.089844-17.121093 39.527344-26.867187 63.527344-27.90625-2.429688 7.703125-3.765625 15.648438-3.765625 23.792969 0 44.113281 35.832031 80 79.878906 80 8.113281 0 16.023438-1.335938 23.695312-3.761719-1.007812 23.152344-10.214843 46.007813-27.824218 63.640625zm0 0"/><path d="m98.167969 386.347656 15.976562-15.996094 11.328125 11.308594-15.976562 16zm0 0"/><path d="m42.273438 442.328125 39.941406-40 11.328125 11.3125-39.941407 40zm0 0"/></g></svg>